<svg xmlns="http://www.w3.org/2000/svg" xmlns:xlink="http://www.w3.org/1999/xlink" version="1.1" id="Layer_1" x="0px" y="0px" style="enable-background:new 0 0 500 150;" xml:space="none" viewBox="100 72.95 300 104.1"><style type="text/css">	.st0{fill:#242429;}	.st1{fill:url(#SVGID_1_);}	.st2{fill:#737374;}	.st3{fill:#EF5125;}	.st4{fill:#7FBA42;}	.st5{fill:#329FD9;}	.st6{fill:#FCB713;}</style><g>	<path class="st0" d="M131.989502,175.8796234l-7.7372742-18.5696259c-2.0805664-5.0295715-5.0038376-7.5444031-8.7699738-7.5444031   h-4.8899918v26.1140289H100v-64.403923h20.5999451c6.6717834,0,11.8476715,1.533432,15.5277405,4.6003113   c3.6801605,3.0668793,5.5201569,7.3348999,5.5201569,12.8041458c0.1142578,4.1185913-1.1989288,8.1482544-3.7129517,11.3934174   c-2.6384277,3.2265472-6.2622681,5.4781799-10.3038177,6.4020996v0.1764069   c1.5818024,0.6532745,2.9684296,1.7100677,4.0243378,3.0668793c1.3175354,1.4702301,2.3917847,3.1452332,3.1814575,4.9606323   l9.7494812,21.0000305H131.989502z M130.5240173,129.8769531c0.0644989-1.3222809-0.1763153-2.6416321-0.7034454-3.8538361   c-0.5270386-1.2122116-1.3260651-2.2840958-2.3337631-3.1309738c-1.9944229-1.6663132-4.8190002-2.4969635-8.4738312-2.4918823   h-8.4207153v20.3487167h8.2764587c3.0713806,0.1022186,6.0634232-0.9963837,8.352356-3.0668793   c1.0745773-0.9841766,1.925972-2.1910553,2.4960556-3.5381927   C130.2872162,132.796875,130.5624542,131.3412933,130.5240173,129.8769531z"></path>	<path class="st0" d="M157.3927155,155.9452515c0.2075348,4.1958923,1.4730225,7.388504,3.7965393,9.5762024   c2.3234406,2.1876984,5.6314697,3.2786713,9.9240723,3.2737579c2.5263824,0.0114746,5.0367126-0.4057465,7.4259644-1.2344208   c2.2198334-0.74263,4.3203125-1.8098297,6.2342529-3.1663971v8.763092c-2.1483612,1.309021-4.4958191,2.2491913-6.947937,2.7836151   c-3.0224457,0.7409821-6.1228485,1.1090088-9.2331696,1.0958862c-6.9198151,0-12.2754669-2.0901489-16.066925-6.271286   c-3.7913818-4.1811371-5.6896515-9.9827576-5.6947327-17.404541c-0.1007385-4.4657288,0.8682709-8.8898926,2.8245697-12.8961945   c1.7689362-3.5524597,4.4890137-6.5328522,7.8512115-8.6026001c3.3128662-2.0439301,7.1278534-3.1066284,11.0099792-3.0668793   c6.2870178,0,11.1743927,1.9449158,14.661911,5.8347321c3.4877014,3.8898315,5.2295074,9.2823486,5.2245789,16.1777496v5.1372833   H157.3927155z M178.1672516,148.1321564c0-3.6547546-0.8453369-6.4404755-2.5360718-8.3572693   c-1.6907196-1.9168091-4.0622711-2.8751526-7.1146393-2.8751526c-1.3561554-0.0107422-2.6999969,0.2607269-3.9475403,0.7976074   c-1.2476196,0.536972-2.3722839,1.3276978-3.3038483,2.3229523c-2.1156464,2.2169495-3.4726868,5.0596466-3.8724365,8.1118622   H178.1672516z"></path>	<path class="st0" d="M223.1734314,175.8796234v-6.3327789h-0.182785c-1.3860626,2.3417969-3.3655701,4.2672119-5.7352295,5.5786743   c-2.3688507,1.3114777-5.0417938,1.9606476-7.7417908,1.8811493c-4.4803009,0-8.0106201-1.2286987-10.5925903-3.6876984   c-2.581955-2.4581909-3.8696594-5.7811279-3.8647461-9.9671783c0-4.309021,1.2655792-7.7671967,3.7967224-10.3738403   c2.5303192-2.6067963,6.2360382-4.2245789,11.1155396-4.8533325l13.3032379-1.8400726   c0-6.2666321-2.8753967-9.3974457-8.6253815-9.3922729c-2.7672119-0.0024567-5.513916,0.4694214-8.1245728,1.395401   c-2.5122833,0.8698273-4.8770294,2.1268005-7.0090027,3.7262115v-9.1392365   c2.3000031-1.3137665,4.7827759-2.2676849,7.3655548-2.8291626c2.8885193-0.7872925,5.8622894-1.209671,8.8532562-1.2574615   c5.8467102,0,10.2458801,1.533432,13.1966858,4.6003113c2.9516296,3.0668793,4.4147491,7.5189209,4.389328,13.3562012v29.1350861   H223.1734314z M205.1546326,162.2706451c-0.0327911,0.9024506,0.1426239,1.8008118,0.5131073,2.6237488   c0.3704987,0.8221436,0.925415,1.5458984,1.6204834,2.1147614c1.5442657,1.2221222,3.4688416,1.8491669,5.4295044,1.7704773   c1.4155579,0.0475464,2.8253937-0.2106476,4.1344147-0.756546c1.3090057-0.5458984,2.4885101-1.367218,3.4581909-2.4098358   c0.9909821-1.066391,1.763092-2.3196564,2.2737579-3.6876831c0.5106506-1.368042,0.75-2.8246002,0.7032776-4.2860565v-4.1325378   l-9.8335876,1.3340912c-3.1130981,0.4525452-5.2696533,1.2271271-6.4688263,2.3386078   c-1.1999969,1.1114655-1.8303223,2.8139191-1.8303223,5.1212921V162.2706451z"></path>	<path class="st0" d="M276.4134521,173.9788055c-3.5032654,2.0442505-7.8188171,3.066391-12.9466858,3.066391   c-4.0868835,0.0713043-8.1237488-0.9188538-11.7237396-2.875412c-3.3860626-1.8942566-6.1581879-4.7385101-7.9803009-8.1884918   c-1.9401703-3.6426239-2.9278717-7.7245789-2.8696747-11.8607941c-0.0926208-4.5935211,0.9237671-9.1407166,2.9614716-13.2489014   c1.9114685-3.7746582,4.9040833-6.8815308,8.587677-8.9168549c4.0065613-2.1774597,8.5032654-3.2684326,13.0524292-3.1665497   c2.0188599,0.008194,4.0311279,0.2266388,6.0057068,0.6516266c1.7221375,0.3045959,3.3885193,0.8707428,4.9434509,1.679184   v9.8369446c-3.0172119-2.3359833-6.6999817-3.6267242-10.5016174-3.6802368   c-1.9377136-0.0731201-3.8680115,0.2758942-5.6606445,1.0234375c-1.7926331,0.7474518-3.4040833,1.8759003-4.7262115,3.3085175   c-2.6573792,2.8879395-3.9868774,6.7445679-3.9868774,11.5697937c0,4.8251648,1.265564,8.5849762,3.7967224,11.2784271   c2.5311432,2.7196655,5.9885101,4.081131,10.3720856,4.0868683c1.8164062-0.0426178,3.6130981-0.3926239,5.3155518-1.0352478   c1.9229736-0.6680298,3.7377014-1.6221313,5.382782-2.8294983L276.4134521,173.9788055z"></path>	<path class="st0" d="M311.9240112,175.458313c-1.0508423,0.5040894-2.1647644,0.8598328-3.3106384,1.0581818   c-1.5139465,0.3377075-3.059021,0.5122986-4.6090088,0.5213165c-8.9294739,0-13.3942261-4.8557281-13.3942261-14.5679932   V138.264801h-7.5934143v-8.3878479h7.5934143v-10.573082l10.3262024-3.1894989v13.8008652h10.9876709v8.3572693h-10.9876709   v22.2735443c0,2.9081879,0.5065613,4.9680176,1.5188293,6.1794891c1.0122986,1.2114868,2.6426392,1.817215,4.8901672,1.817215   c0.7729492-0.0221252,1.5393372-0.1508179,2.2778625-0.383606c0.8081665-0.2122955,1.5770569-0.5541077,2.2778625-1.0122986   L311.9240112,175.458313z"></path>	<path class="st0" d="M400,140.0134125c-0.8106689-0.5036926-1.6983643-0.8665619-2.6278687-1.0734406   c-1.0844421-0.3124695-2.204895-0.480011-3.3327637-0.4983673c-1.4303284-0.0263824-2.8442688,0.3108978-4.1114807,0.9808197   s-2.3467102,1.6508942-3.1401672,2.8527832c-1.837677,2.5557251-2.7565308,5.911377-2.7565308,10.0669403v23.5382843h-10.280304   v-46.003067h10.280304v8.9706421h0.205719c0.8082275-2.784668,2.3893433-5.2775269,4.5557556-7.1841736   c1.9745789-1.6833496,4.4844055-2.5923615,7.0688171-2.5608826c1.4065552-0.0629578,2.8122864,0.1505737,4.1385193,0.6287537   V140.0134125z"></path>			<linearGradient id="SVGID_1_" gradientUnits="userSpaceOnUse" x1="323.9504089" y1="74.2471466" x2="356.9224854" y2="115.2371979" gradientTransform="matrix(1 0 0 -1 0 249.7322845)">		<stop offset="0" style="stop-color:#00A4EF"></stop>		<stop offset="1" style="stop-color:#50E6FF"></stop>	</linearGradient>	<path class="st1" d="M350.4312744,138.3721008l8.3524475,14.5675812l-8.3524475,14.5678253h-16.6589661l-8.3524475-14.5678253   l8.3524475-14.5675812H350.4312744z M351.2894897,129.171463h-18.3753662   c-1.3368835-0.0014801-2.6508179,0.3518982-3.8106689,1.0246735c-1.1589966,0.6728668-2.1229248,1.6414642-2.7950745,2.8089294   l-9.1802979,16.0627441c-0.6663818,1.1655731-1.0172119,2.4876862-1.0172119,3.8335876   c0,1.3458252,0.3508301,2.6676178,1.0172119,3.8331909l9.1802979,16.101593   c0.6729736,1.1663971,1.6369019,2.133606,2.7967224,2.8065491c1.1590271,0.6729584,2.4721375,1.0270538,3.809021,1.0270538   h18.3753662c1.336853,0,2.6508179-0.3540955,3.8097839-1.0270538c1.1590271-0.6729431,2.1229858-1.640152,2.795929-2.8065491   l9.1802979-16.101593c0.6663818-1.1655731,1.0172119-2.4873657,1.0172119-3.8331909   c0-1.3459015-0.3508301-2.6680145-1.0172119-3.8335876l-9.1802979-16.0627441   c-0.6713257-1.1674652-1.6352539-2.1360626-2.795105-2.8089294   C353.9411011,129.5233612,352.6263428,129.1699829,351.2894897,129.171463z"></path>	<path class="st2" d="M128.942627,83.0365143l-0.5118866,1.3873749h-0.0204926   c-0.1225433-0.4634476-0.2799988-0.9169693-0.4709854-1.356636l-2.6210556-6.5934982h-2.5595779v10.4943008h1.6944962v-6.4655075   c0-0.4095383,0-0.8702698,0-1.4436111c0-0.2815628-0.0409775-0.5119095-0.0512238-0.6603699h0.0409851   c0.0591736,0.30439,0.1413116,0.6038666,0.2456512,0.8958588l3.1483536,7.6787949h1.1927872l3.1226959-7.724884   c0.0827026-0.2709274,0.151062-0.5460358,0.2047424-0.8241806h0.0409851   c-0.0409851,0.772995-0.0665588,1.4640884-0.081955,1.8838577v6.6549606h1.8071136V76.4737549h-2.493103L128.942627,83.0365143z    M135.8330231,79.4121552h1.7405701v7.5251694h-1.7405701V79.4121552z M136.7289124,76.2382507   c-0.278595-0.0036392-0.547287,0.1031189-0.7474518,0.2969284c-0.0959015,0.0951767-0.1721344,0.2084351-0.2241058,0.3331985   c-0.0519562,0.1247559-0.0786896,0.2585526-0.0786896,0.3937149c0,0.1351547,0.0267334,0.2689819,0.0786896,0.3937454   c0.0519714,0.1247711,0.1282043,0.2380219,0.2241058,0.3332062c0.098938,0.0955353,0.2161407,0.1701431,0.3445892,0.2193985   c0.1283569,0.0492554,0.2654114,0.0721359,0.4028625,0.0672684c0.276062,0.0006409,0.5425415-0.1015549,0.7473755-0.2866669   c0.0994263-0.0919495,0.1786041-0.2036591,0.2323761-0.3279495c0.053772-0.1242981,0.0809937-0.2584534,0.0799255-0.3938751   c-0.0005798-0.1366882-0.0284424-0.2718735-0.0821381-0.3975906c-0.0536041-0.1257324-0.1318817-0.2394485-0.2301636-0.3344498   c-0.098114-0.097374-0.2148285-0.1738739-0.3433533-0.2248993   C137.0044861,76.2592468,136.8670349,76.2347336,136.7289124,76.2382507z M143.8547974,79.3456039   c-0.3266449-0.0686569-0.6593475-0.1046448-0.9931183-0.1074829c-0.7474518-0.0201416-1.4871216,0.156395-2.1449127,0.5119171   c-0.5992584,0.3392944-1.0879364,0.8440247-1.4077759,1.4538574c-0.3458252,0.6706543-0.521637,1.4159775-0.5119629,2.1704865   c-0.0071411,0.6781082,0.1566315,1.3471298,0.476059,1.9453201c0.3016357,0.5686035,0.7647552,1.0353241,1.3310699,1.3412247   c0.5946655,0.3237686,1.2631073,0.4877853,1.940155,0.4760666c0.7424622,0.0189362,1.4767914-0.1576233,2.1295776-0.5118866   v-1.6279449l-0.0665588,0.0563126c-0.2594147,0.1931152-0.5480194,0.3435211-0.8549042,0.4454117   c-0.2708282,0.0999985-0.556076,0.1553268-0.8446808,0.163765c-0.3064728,0.0202484-0.613678-0.0275421-0.8995056-0.1399155   c-0.2858887-0.1124573-0.5433502-0.2866364-0.7540131-0.5101624c-0.4289246-0.4911499-0.6493378-1.1303253-0.6142578-1.7814713   c-0.0398407-0.6690979,0.184433-1.3271255,0.6245117-1.8327026c0.2135162-0.2228622,0.4715576-0.398201,0.7572937-0.5146332   c0.2858124-0.1164322,0.5929413-0.1713181,0.9013062-0.1611023c0.6069641,0.0089722,1.1958923,0.2076569,1.6842499,0.5681992   l0.0665588,0.0563889v-1.7251892c-0.2694244-0.1200104-0.5508881-0.2109756-0.8395844-0.2713318L143.8547974,79.3456039z    M149.6599426,79.2995453c-0.436142-0.0050049-0.8602448,0.1435928-1.1978607,0.4197769   c-0.3077087,0.2790985-0.5400848,0.631218-0.6757355,1.0238342v-1.3207474h-1.7814789v7.5251617h1.7660675v-3.8444977   c-0.0304871-0.5621338,0.1222076-1.1190186,0.4351654-1.5869675c0.1235199-0.1898346,0.2928619-0.3455734,0.4922943-0.4529343   c0.1995087-0.107338,0.4227753-0.1628036,0.6492615-0.1613159c0.1720428,0.0124817,0.3431091,0.0363998,0.5119629,0.0716476   c0.1489258,0.0333252,0.2908936,0.0922318,0.419754,0.1740646l0.07164,0.0563278v-1.7661514h-0.0409088   c-0.2090912-0.0924988-0.4374542-0.1328964-0.6654816-0.1177292L149.6599426,79.2995453z M154.4464111,79.2790527   c-0.5349121-0.0297394-1.0701599,0.0513077-1.5722961,0.2380524c-0.502121,0.1867523-0.9602356,0.475174-1.3456573,0.8472137   c-0.3592529,0.4000702-0.634903,0.8679352-0.81073,1.3760529c-0.1758118,0.50811-0.2482758,1.0463028-0.2131195,1.5828629   c-0.0249176,0.513031,0.0527954,1.0258179,0.2286072,1.5084381c0.175827,0.4825363,0.4461517,0.9251633,0.7952423,1.3019638   c0.7849274,0.6781921,1.7909088,1.0458984,2.8281097,1.0335999c1.0372925-0.0122147,2.034256-0.4035187,2.802948-1.1001587   c0.7136841-0.8010635,1.0817108-1.8517151,1.0238495-2.923027c0.0581207-1.0395813-0.2991028-2.0597763-0.9931183-2.8360367   c-0.3594208-0.3542633-0.7896576-0.6285934-1.2625275-0.8050308s-0.9777069-0.2509995-1.481308-0.2188034V79.2790527z    M155.8592682,85.0637207c-0.1794128,0.2139359-0.4071198,0.3821259-0.6643372,0.4907379   c-0.2572937,0.1086044-0.5366364,0.1544266-0.8150787,0.1338501c-0.2890167,0.0191803-0.5784454-0.0296707-0.8451691-0.14254   c-0.2667236-0.1129532-0.5031891-0.2868042-0.690567-0.5076218c-0.3921356-0.5176239-0.5847473-1.1590958-0.5427094-1.807045   c-0.0390167-0.6587677,0.1528778-1.3104858,0.5427094-1.8429413c0.1851654-0.2169724,0.4175415-0.3888092,0.6792603-0.5023651   c0.2616425-0.1135559,0.5458984-0.1658401,0.8309021-0.1528854c0.2755737-0.0149612,0.5508118,0.0335693,0.8046722,0.1418533   c0.2538452,0.108284,0.4794159,0.2733917,0.6593475,0.4826584c0.3906555,0.5281906,0.5827789,1.1770401,0.5426941,1.832695   c0.034256,0.6632004-0.1451569,1.3199997-0.5119629,1.8736038H155.8592682z M162.1098328,82.5656128   c-0.3826294-0.1327057-0.7445984-0.3188553-1.0750885-0.5528641c-0.0701599-0.0773773-0.1244202-0.1679535-0.1595001-0.2663116   c-0.0351715-0.0983658-0.0505829-0.2027054-0.0452423-0.3070526c-0.0024567-0.1073761,0.0225372-0.2136841,0.0727844-0.3086319   c0.0501556-0.0949707,0.123764-0.1755371,0.2139282-0.234024c0.2305756-0.145874,0.500412-0.2173615,0.7729492-0.2047729   c0.3085327,0.0054855,0.6149139,0.0519638,0.9112244,0.1382294c0.2832031,0.0734711,0.550415,0.1984024,0.7883606,0.3685455   l0.0665588,0.0512314v-1.7047043h-0.0409851c-0.2590942-0.0996246-0.5262299-0.176712-0.7985992-0.2303619   c-0.2872925-0.0514908-0.5783691-0.0788727-0.8702393-0.0818939c-0.7478638-0.0360794-1.4843445,0.1942673-2.0783691,0.6501083   c-0.2558136,0.1926804-0.461792,0.4438019-0.6007233,0.7323532c-0.1389465,0.2885437-0.2068176,0.6061401-0.197876,0.9263   c-0.0164795,0.3085251,0.0397491,0.6166382,0.1642609,0.8993378c0.1245117,0.2827911,0.3136902,0.5323792,0.5523834,0.7285233   c0.3331146,0.2504959,0.6980286,0.4553299,1.0853271,0.6091843c0.3106537,0.1263046,0.6147461,0.2681122,0.9112244,0.4249115   c0.1499939,0.0891037,0.2877045,0.1975403,0.4095001,0.322464c0.0746002,0.1270447,0.1118927,0.2725372,0.1074677,0.4198303   c0,0.5118866-0.3787842,0.7473755-1.1568909,0.7473755c-0.3316345-0.003685-0.6603241-0.0624542-0.9726105-0.1740112   c-0.353775-0.1225433-0.6882019-0.2949219-0.9931946-0.5119705l-0.0665588-0.0563126v1.7609787h0.0409851   c0.3055725,0.1300812,0.6226044,0.2312317,0.9470367,0.3020477c0.3373871,0.0689392,0.6797638,0.1100845,1.0238495,0.1228714   c0.7835236,0.049675,1.5589294-0.182785,2.1858978-0.6552429c0.2661438-0.1968002,0.4805756-0.4550858,0.625-0.7528687   s0.2145081-0.6261444,0.2043457-0.9569626c0.0173798-0.468689-0.1373749-0.9276199-0.4351654-1.2900009   c-0.4732819-0.3982773-1.0095825-0.7149124-1.5869598-0.9367981L162.1098328,82.5656128z M168.7698975,79.26371   c-0.5349121-0.029747-1.0701599,0.0513077-1.5722961,0.23806c-0.5021362,0.1867447-0.9602509,0.4751587-1.3456573,0.8471985   c-0.7197418,0.8117294-1.0879364,1.8759079-1.0238495,2.9588547c-0.0249176,0.513031,0.0527954,1.0259018,0.2286072,1.5084381   c0.175827,0.4826202,0.4461517,0.9252472,0.7952423,1.3020477c0.7849274,0.6781921,1.7908173,1.0458145,2.8281097,1.0335999   c1.0372925-0.012291,2.034256-0.4036026,2.802948-1.1001587c0.7136841-0.8010635,1.0817108-1.851799,1.0238495-2.923027   c0.0581207-1.0396652-0.2991028-2.0597839-0.9931183-2.8360519c-0.3594971-0.3542557-0.7897491-0.6285934-1.2625275-0.8050232   c-0.4728699-0.176445-0.9777069-0.2510071-1.481308-0.218811V79.26371z M170.1725159,85.0483932   c-0.1800079,0.2132797-0.4077911,0.3810654-0.664917,0.4895859c-0.2570496,0.1085281-0.5361481,0.1547546-0.8145142,0.1349182   c-0.2893372,0.0221329-0.5796661-0.0253296-0.8468781-0.138443s-0.5033569-0.2886047-0.6889343-0.5116348   c-0.3959808-0.5158997-0.5906525-1.1581955-0.547699-1.8071289c-0.0375366-0.6593399,0.1561432-1.311058,0.547699-1.842865   c0.184021-0.2172089,0.415329-0.3892365,0.6763153-0.5028381c0.2608948-0.1136093,0.5445099-0.1657715,0.8287659-0.1524429   c0.2753296-0.0130615,0.5500793,0.0363541,0.8036041,0.1445084s0.4793396,0.2722702,0.6604919,0.4800415   c0.390564,0.5281067,0.5827026,1.1770401,0.5426178,1.832695c0.0442657,0.6642609-0.1360626,1.3240967-0.5118866,1.8736038   H170.1725159z M181.9312439,80.8813553v-1.4538269h-1.7814636v-2.2370834h-0.0511475l-1.6842499,0.5119171h-0.0409088v1.694458   h-2.6108093v-0.9470749c-0.0230408-0.3567123,0.084259-0.7096405,0.3020477-0.9931183   c0.1055756-0.1105499,0.2340088-0.1966629,0.3763885-0.2523651c0.1423798-0.0557098,0.295166-0.0796661,0.4477844-0.0701523   c0.2719727,0.0029984,0.5404053,0.0622711,0.7883606,0.1740646l0.0665588,0.0409698v-1.535759h-0.0409851   c-0.3197479-0.0990753-0.6533508-0.145752-0.9880371-0.1382294c-0.4899902-0.0018616-0.9736786,0.1103134-1.4128571,0.3276367   c-0.4085236,0.2190857-0.7432861,0.5538712-0.9623718,0.96241c-0.2381134,0.426857-0.3600006,0.908783-0.3532867,1.3975296   v1.0238342h-1.2336731v1.4436188h1.2336731v6.0815659h1.7763977v-6.0457306h2.6619568v3.870079   c0,1.5869598,0.7473755,2.3906479,2.2422028,2.3906479c0.2492676-0.0070496,0.4975433-0.0344238,0.7422943-0.0818863   c0.1927032-0.0363083,0.3801727-0.0964737,0.5578613-0.1791763v-1.4538498l-0.066391,0.0563126   c-0.1133575,0.0727844-0.2378693,0.1263885-0.3686066,0.1586838c-0.1144257,0.0356598-0.233429,0.0545959-0.3531952,0.0563126   c-0.1422119,0.0147552-0.2859039-0.0034409-0.4199982-0.0531921c-0.1340027-0.049675-0.2548218-0.1295929-0.3530273-0.2334442   c-0.1919708-0.2822113-0.2789307-0.6227875-0.2457275-0.9624557v-3.5578232L181.9312439,80.8813553z"></path>	<path class="st3" d="M100,72.95121h8.3238297v8.3238297H100V72.95121z"></path>	<path class="st4" d="M109.2148895,72.95121h8.2981796v8.3238297h-8.2981796V72.95121z"></path>	<path class="st5" d="M100,82.1404495h8.3238297v8.3238297H100V82.1404495z"></path>	<path class="st6" d="M109.2148895,82.1404495h8.2981796v8.3238297h-8.2981796V82.1404495z"></path></g></svg>